<?xml version="1.0" standalone="no"?><!DOCTYPE svg PUBLIC "-//W3C//DTD SVG 1.1//EN" "http://www.w3.org/Graphics/SVG/1.1/DTD/svg11.dtd"><svg t="1707207447098" class="icon" viewBox="0 0 1024 1024" version="1.1" xmlns="http://www.w3.org/2000/svg" p-id="17906" xmlns:xlink="http://www.w3.org/1999/xlink" width="128" height="128"><path d="M0 0h1024v1024H0z" fill="#0088EE" fill-opacity=".01" p-id="17907"></path><path d="M512 85.333333C276.366222 85.333333 85.333333 276.366222 85.333333 512s191.032889 426.666667 426.666667 426.666667 426.666667-191.032889 426.666667-426.666667S747.633778 85.333333 512 85.333333zM0 512C0 229.233778 229.233778 0 512 0s512 229.233778 512 512-229.233778 512-512 512S0 794.766222 0 512z" fill="#0088EE" p-id="17908"></path><path d="M409.230222 970.069333c-4.124444-5.347556-4.124444-52.764444 0-142.364444-44.202667 1.536-72.135111-1.536-83.768889-9.187556-17.464889-11.491556-34.958222-46.933333-50.488889-71.936-15.530667-24.974222-49.976889-28.928-63.914666-34.531555-13.909333-5.546667-17.408-28.330667 38.343111-11.121778s58.481778 64.085333 76.060444 75.064889c17.578667 10.951111 59.648 6.172444 78.705778-2.616889s17.664-41.500444 21.048889-54.442667c4.295111-12.088889-10.837333-14.791111-11.178667-14.876444-18.602667 0-116.337778-21.219556-143.189333-115.882667-26.851556-94.634667 7.736889-156.501333 26.168889-183.096889 12.316444-17.749333 11.207111-55.523556-3.271111-113.351111 52.565333-6.712889 93.098667 9.813333 121.685333 49.635556 0.028444 0.227556 37.432889-22.243556 96.568889-22.243556 59.107556 0 80.099556 18.318222 96.312889 22.243556s29.127111-69.688889 129.109333-49.635556c-20.849778 41.016889-38.371556 92.302222-25.031111 113.351111 13.368889 21.048889 65.735111 88.035556 33.564445 183.096889-21.447111 63.402667-63.601778 102.001778-126.435556 115.882667-7.224889 2.332444-10.837333 6.030222-10.837333 11.178667 0 7.68 9.756444 8.504889 23.779555 44.487111 9.386667 24.007111 10.069333 92.501333 2.048 205.568-20.309333 5.176889-36.096 8.618667-47.36 10.382222-19.996444 3.157333-41.728 4.892444-63.061333 5.603555-21.333333 0.654222-28.728889 0.597333-58.225778-2.161777a425.642667 425.642667 0 0 1-56.632889-9.045334z" fill="#0088EE" p-id="17909"></path></svg>