<?xml version="1.0" standalone="no"?><!DOCTYPE svg PUBLIC "-//W3C//DTD SVG 1.1//EN" "http://www.w3.org/Graphics/SVG/1.1/DTD/svg11.dtd"><svg t="1707208307439" class="icon" viewBox="0 0 1024 1024" version="1.1" xmlns="http://www.w3.org/2000/svg" p-id="25070" xmlns:xlink="http://www.w3.org/1999/xlink" width="128" height="128"><path d="M512 1024C229.248 1024 0 794.752 0 512S229.248 0 512 0s512 229.248 512 512-229.248 512-512 512z m0-571.733333v119.466666h168.96A179.541333 179.541333 0 0 1 512 691.2 179.413333 179.413333 0 0 1 332.8 512c0-98.816 80.384-179.2 179.2-179.2 42.837333 0 84.053333 15.36 116.053333 43.264l78.506667-90.112A295.978667 295.978667 0 0 0 512 213.333333c-164.693333 0-298.666667 133.973333-298.666667 298.666667s133.973333 298.666667 298.666667 298.666667 298.666667-133.973333 298.666667-298.666667v-59.733333h-298.666667z" fill="#0088EE" p-id="25071"></path></svg>